HIERARCHY
ROOT hip
{
  OFFSET 17.9028 73.4307 16.8062
  CHANNELS 6 Xposition Yposition Zposition Zrotation Xrotation Yrotation
  JOINT abdomen
  {
    OFFSET 0 20.6881 -0.73152
    CHANNELS 3 Zrotation Xrotation Yrotation
    JOINT chest
    {
      OFFSET 0 11.7043 -0.48768
      CHANNELS 3 Zrotation Xrotation Yrotation
      JOINT neck
      {
        OFFSET 0 22.1894 -2.19456
        CHANNELS 3 Zrotation Xrotation Yrotation
        JOINT head
        {
          OFFSET -0.24384 7.07133 1.2192
          CHANNELS 3 Zrotation Xrotation Yrotation
          JOINT leftEye
          {
            OFFSET 4.14528 8.04674 8.04672
            CHANNELS 3 Zrotation Xrotation Yrotation
            End Site
            {
              OFFSET 1 0 0
            }
          }
          JOINT rightEye
          {
            OFFSET -3.6576 8.04674 8.04672
            CHANNELS 3 Zrotation Xrotation Yrotation
            End Site
            {
              OFFSET 1 0 0
            }
          }
        }
      }
      JOINT rCollar
      {
        OFFSET -2.68224 19.2634 -4.8768
        CHANNELS 3 Zrotation Xrotation Yrotation
        JOINT rShldr
        {
          OFFSET -8.77824 -1.95073 1.46304
          CHANNELS 3 Zrotation Xrotation Yrotation
          JOINT rForeArm
          {
            OFFSET -28.1742 -1.7115 0.48768
            CHANNELS 3 Zrotation Xrotation Yrotation
            JOINT rHand
            {
              OFFSET -22.5879 0.773209 7.07136
              CHANNELS 3 Zrotation Xrotation Yrotation
              JOINT rThumb1
              {
                OFFSET -1.2192 -0.487915 3.41376
                CHANNELS 3 Zrotation Xrotation Yrotation
                JOINT rThumb2
                {
                  OFFSET -3.37035 -0.52449 3.41376
                  CHANNELS 3 Zrotation Xrotation Yrotation
                  End Site
                  {
                    OFFSET -1.78271 -1.18214 1.43049
                  }
                }
              }
              JOINT rIndex1
              {
                OFFSET -7.75947 0.938293 5.60832
                CHANNELS 3 Zrotation Xrotation Yrotation
                JOINT rIndex2
                {
                  OFFSET -2.54057 -0.884171 1.56538
                  CHANNELS 3 Zrotation Xrotation Yrotation
                  End Site
                  {
                    OFFSET -1.62519 -0.234802 1.16502
                  }
                }
              }
              JOINT rMid1
              {
                OFFSET -8.24714 1.18213 3.41376
                CHANNELS 3 Zrotation Xrotation Yrotation
                JOINT rMid2
                {
                  OFFSET -3.10165 -0.590103 1.0647
                  CHANNELS 3 Zrotation Xrotation Yrotation
                  End Site
                  {
                    OFFSET -2.48547 -0.328903 0.83742
                  }
                }
              }
              JOINT rRing1
              {
                OFFSET -8.82822 0.546677 1.51678
                CHANNELS 3 Zrotation Xrotation Yrotation
                JOINT rRing2
                {
                  OFFSET -2.60934 -0.819778 -0.0198488
                  CHANNELS 3 Zrotation Xrotation Yrotation
                  End Site
                  {
                    OFFSET -2.33842 -0.294052 0.168128
                  }
                }
              }
              JOINT rPinky1
              {
                OFFSET -8.27202 -0.0477905 -0.4584
                CHANNELS 3 Zrotation Xrotation Yrotation
                JOINT rPinky2
                {
                  OFFSET -1.82734 -0.647385 -0.700984
                  CHANNELS 3 Zrotation Xrotation Yrotation
                  End Site
                  {
                    OFFSET -1.69225 -0.51767 -0.607171
                  }
                }
              }
            }
          }
        }
      }
      JOINT lCollar
      {
        OFFSET 2.68224 19.2634 -4.8768
        CHANNELS 3 Zrotation Xrotation Yrotation
        JOINT lShldr
        {
          OFFSET 8.77824 -1.95073 1.46304
          CHANNELS 3 Zrotation Xrotation Yrotation
          JOINT lForeArm
          {
            OFFSET 28.1742 -1.7115 0.48768
            CHANNELS 3 Zrotation Xrotation Yrotation
            JOINT lHand
            {
              OFFSET 22.5879 0.773209 7.07136
              CHANNELS 3 Zrotation Xrotation Yrotation
              JOINT lThumb1
              {
                OFFSET 1.2192 -0.487915 3.41376
                CHANNELS 3 Zrotation Xrotation Yrotation
                JOINT lThumb2
                {
                  OFFSET 3.37035 -0.52449 3.41376
                  CHANNELS 3 Zrotation Xrotation Yrotation
                  End Site
                  {
                    OFFSET 1.78271 -1.18214 1.43049
                  }
                }
              }
              JOINT lIndex1
              {
                OFFSET 7.75947 0.938293 5.60832
                CHANNELS 3 Zrotation Xrotation Yrotation
                JOINT lIndex2
                {
                  OFFSET 2.54057 -0.884171 1.56538
                  CHANNELS 3 Zrotation Xrotation Yrotation
                  End Site
                  {
                    OFFSET 1.62519 -0.234802 1.16502
                  }
                }
              }
              JOINT lMid1
              {
                OFFSET 8.24714 1.18213 3.41376
                CHANNELS 3 Zrotation Xrotation Yrotation
                JOINT lMid2
                {
                  OFFSET 3.10165 -0.590103 1.0647
                  CHANNELS 3 Zrotation Xrotation Yrotation
                  End Site
                  {
                    OFFSET 2.48547 -0.328903 0.83742
                  }
                }
              }
              JOINT lRing1
              {
                OFFSET 8.82822 0.546677 1.51678
                CHANNELS 3 Zrotation Xrotation Yrotation
                JOINT lRing2
                {
                  OFFSET 2.60934 -0.819778 -0.0198488
                  CHANNELS 3 Zrotation Xrotation Yrotation
                  End Site
                  {
                    OFFSET 2.33842 -0.294052 0.168128
                  }
                }
              }
              JOINT lPinky1
              {
                OFFSET 8.27202 -0.0477905 -0.4584
                CHANNELS 3 Zrotation Xrotation Yrotation
                JOINT lPinky2
                {
                  OFFSET 1.82734 -0.647385 -0.700984
                  CHANNELS 3 Zrotation Xrotation Yrotation
                  End Site
                  {
                    OFFSET 1.69225 -0.51767 -0.607171
                  }
                }
              }
            }
          }
        }
      }
    }
  }
  JOINT rButtock
  {
    OFFSET -8.77824 4.35084 1.2192
    CHANNELS 3 Zrotation Xrotation Yrotation
    JOINT rThigh
    {
      OFFSET 0 -1.70687 -2.19456
      CHANNELS 3 Zrotation Xrotation Yrotation
      JOINT rShin
      {
        OFFSET 0 -36.8199 0.73152
        CHANNELS 3 Zrotation Xrotation Yrotation
        JOINT rFoot
        {
          OFFSET 0.73152 -45.1104 -5.12064
          CHANNELS 3 Zrotation Xrotation Yrotation
          End Site
          {
            OFFSET -1.1221 -3.69964 12.103
          }
        }
      }
    }
  }
  JOINT lButtock
  {
    OFFSET 8.77824 4.35084 1.2192
    CHANNELS 3 Zrotation Xrotation Yrotation
    JOINT lThigh
    {
      OFFSET 0 -1.70687 -2.19456
      CHANNELS 3 Zrotation Xrotation Yrotation
      JOINT lShin
      {
        OFFSET 0 -36.8199 0.73152
        CHANNELS 3 Zrotation Xrotation Yrotation
        JOINT lFoot
        {
          OFFSET -0.73152 -45.1104 -5.12064
          CHANNELS 3 Zrotation Xrotation Yrotation
          End Site
          {
            OFFSET 1.1221 -3.69964 12.103
          }
        }
      }
    }
  }
}
MOTION
Frames:	7
Frame Time:	0.00833333
18.7661 74.2809 15.3691 0.91625 0.00143176 -0.0169728 -1.20512 -0.00379131 -0.0330412 -0.332185 -0.00228148 -0.0575411 4.76471e-014 0 6.33626e-016 1.42864e-013 3.18055e-015 1.83565e-015 -0 0 0 -0 0 0 2.37544e-014 3.68839e-017 4.47265e-016 5.01837e-013 9.25591e-016 9.1441e-015 8.60827e-012 -2.55299e-012 5.40694e-014 9.85765e-011 2.73804e-012 1.39626e-012 2.32515e-010 3.99979e-013 3.15193e-012 4.01534e-010 6.93361e-013 5.4308e-012 2.32518e-010 3.98762e-013 3.13921e-012 7.73091 5.47488 0.417314 2.32514e-010 3.98861e-013 3.15511e-012 2.90554 0.965183 0.102902 2.32516e-010 3.99557e-013 3.14875e-012 10.2786 0.731801 0.0259123 2.32507e-010 4.03533e-013 3.16147e-012 2.22167 -0.733487 -0.20892 2.36573e-014 3.57191e-017 1.49089e-016 4.98348e-013 9.38015e-016 7.55382e-015 8.61423e-012 2.60786e-012 4.45278e-014 9.85691e-011 -2.43213e-012 1.43443e-012 2.32518e-010 3.7917e-013 3.14875e-012 4.01561e-010 6.52014e-013 5.43954e-012 2.32518e-010 3.77691e-013 3.16465e-012 -7.73091 5.47488 -0.417314 2.32519e-010 3.78784e-013 3.14875e-012 -2.90554 0.965183 -0.102902 2.3251e-010 3.79182e-013 3.15432e-012 -10.2786 0.731801 -0.0259123 2.32527e-010 3.82859e-013 3.15193e-012 -2.22167 -0.733487 0.20892 -2.03217e-016 0 -3.88251e-019 -0.398682 -1.9209 -0.0104488 -0.00935404 -2.07854 -0.0773066 -0.515211 3.9968 0.140753 2.03217e-016 0 3.88251e-019 -1.43402 -5.89298 0.127758 -0.000947324 5.11644 -0.0408391 0.531317 0.774013 -0.0763999 
17.8429 73.2728 16.5781 0.0358821 -2.46271 -0.50497 0.261079 2.40666 0.105689 0.0969783 -1.09999 -0.0113193 -0.297625 -3.01949 -0.215832 -1.02588 0.77312 -0.265371 -0 0 0 -0 0 0 3.42637e-014 -2.20082e-014 2.91189e-016 5.10499 -3.31212 14.293 -9.40086 -6.26206 11.8913 0.063129 5.57824 0.770613 2.65551e-010 1.39875e-010 6.28962e-011 4.60215e-010 2.37697e-010 1.06478e-010 2.65553e-010 1.39869e-010 6.28797e-011 7.73091 5.47488 0.417314 2.65551e-010 1.39874e-010 6.28986e-011 2.90554 0.965183 0.102902 2.65555e-010 1.39875e-010 6.28959e-011 10.2786 0.731801 0.0259123 2.65546e-010 1.39878e-010 6.29085e-011 2.22167 -0.733487 -0.20892 3.42447e-014 -2.20065e-014 -3.64956e-017 -10.1643 -1.26929 -13.8742 13.2981 -10.3489 -13.9897 -0.0568213 5.29176 -0.732298 6.9571e-011 8.91575e-011 -2.54653e-011 1.19208e-010 1.5144e-010 -4.19434e-011 6.95697e-011 8.91612e-011 -2.5453e-011 -7.73091 5.47488 -0.417314 6.95712e-011 8.91603e-011 -2.54673e-011 -2.90554 0.965183 -0.102902 6.9564e-011 8.9158e-011 -2.54611e-011 -10.2786 0.731801 -0.0259123 6.95784e-011 8.91607e-011 -2.54649e-011 -2.22167 -0.733487 0.20892 -2.03217e-016 0 -3.88251e-019 -2.79679 -6.40816 -3.36269 0.0714605 15.2745 0.184005 -0.547663 -4.17679 -0.726793 2.03217e-016 0 3.88251e-019 3.18411 -9.37443 2.70116 -0.00715713 20.5854 -0.267947 0.0672931 -6.83672 -1.36327 
17.8457 73.2726 16.5776 -0.940668 -5.06705 -1.02315 1.79757 4.95437 0.252952 0.552871 -2.26029 0.0374626 -0.637167 -6.21159 -0.446076 -2.10215 1.58952 -0.546422 -0 0 0 -0 0 0 4.56891e-014 -4.17803e-014 6.02566e-016 12.2272 -6.12472 29.5371 -16.5461 -11.9767 24.8917 -0.0363024 11.4717 1.6099 2.96021e-010 2.64779e-010 1.14871e-010 5.14413e-010 4.49568e-010 1.94117e-010 2.96022e-010 2.64767e-010 1.14851e-010 7.73091 5.47488 0.417314 2.96021e-010 2.64779e-010 1.14873e-010 2.90554 0.965183 0.102902 2.96027e-010 2.64779e-010 1.14874e-010 10.2786 0.731801 0.0259123 2.96019e-010 2.64782e-010 1.14887e-010 2.22167 -0.733487 -0.20892 4.57548e-014 -4.17756e-014 2.42269e-016 -21.5494 -2.36223 -28.5607 21.8234 -19.1934 -30.1333 0.0326368 10.8837 -1.5276 -1.14102e-010 1.70543e-010 -4.46073e-011 -1.9887e-010 2.89016e-010 -7.27106e-011 -1.14104e-010 1.70552e-010 -4.45989e-011 -7.73091 5.47488 -0.417314 -1.14102e-010 1.70549e-010 -4.46115e-011 -2.90554 0.965183 -0.102902 -1.14107e-010 1.70544e-010 -4.46045e-011 -10.2786 0.731801 -0.0259123 -1.14096e-010 1.70545e-010 -4.46099e-011 -2.22167 -0.733487 0.20892 -2.03217e-016 0 -3.88251e-019 -5.91214 -11.0928 -6.99623 -0.043557 33.6176 0.536478 -0.853802 -12.816 -1.67351 2.03217e-016 0 3.88251e-019 8.41459 -13.018 5.48938 0.151929 36.9367 -0.591731 -0.806623 -14.8693 -2.79775 
17.8404 73.272 16.5789 -1.85167 -7.3888 -1.49196 3.15824 7.22742 0.385936 0.960624 -3.29541 0.081265 -0.961855 -9.05796 -0.654763 -3.05615 2.31916 -0.796694 -0 0 0 -0 0 0 5.52823e-014 -6.60983e-014 -2.09655e-017 19.7924 -7.50359 43.2658 -20.7323 -15.5337 37.0204 -0.277544 16.7223 2.40255 3.31624e-010 4.18826e-010 1.82385e-010 5.77577e-010 7.11703e-010 3.08573e-010 3.31624e-010 4.18809e-010 1.82361e-010 7.73091 5.47488 0.417314 3.31624e-010 4.18826e-010 1.82386e-010 2.90554 0.965183 0.102902 3.31632e-010 4.18826e-010 1.8239e-010 10.2786 0.731801 0.0259123 3.31623e-010 4.18828e-010 1.82403e-010 2.22167 -0.733487 -0.20892 5.54195e-014 -6.6091e-014 -4.07664e-016 -32.1594 -2.93149 -41.6788 25.2012 -23.4526 -45.9758 0.248903 15.8647 -2.2742 -2.56324e-010 2.66714e-010 -8.26934e-011 -4.455e-010 4.53016e-010 -1.36709e-010 -2.56327e-010 2.66728e-010 -8.26884e-011 -7.73091 5.47488 -0.417314 -2.56325e-010 2.66723e-010 -8.26993e-011 -2.90554 0.965183 -0.102902 -2.56328e-010 2.66716e-010 -8.26919e-011 -10.2786 0.731801 -0.0259123 -2.56319e-010 2.66716e-010 -8.26985e-011 -2.22167 -0.733487 0.20892 -2.03217e-016 0 -3.88251e-019 -9.20891 -15.1755 -10.3695 -0.445231 49.976 1.06833 -1.39228 -20.5053 -2.62162 2.03217e-016 0 3.88251e-019 13.3912 -16.2147 8.06379 0.549482 51.519 -1.07863 -1.95411 -22.01 -4.21569 
17.8477 73.2712 16.5795 -2.50928 -9.00614 -1.82694 4.10424 8.81395 0.480536 1.24429 -4.01763 0.11247 -1.20042 -11.0405 -0.802631 -3.71966 2.83208 -0.969468 -0 0 0 -0 0 0 6.02947e-014 -1.01781e-013 -2.98177e-015 25.5128 -7.62354 52.8487 -22.6841 -16.8201 45.6808 -0.53795 20.3778 2.99247 3.80057e-010 6.4573e-010 2.88743e-010 6.63154e-010 1.0995e-009 4.90073e-010 3.80057e-010 6.45711e-010 2.88718e-010 7.73091 5.47488 0.417314 3.80058e-010 6.45728e-010 2.88743e-010 2.90554 0.965183 0.102902 3.80066e-010 6.45729e-010 2.88751e-010 10.2786 0.731801 0.0259123 3.80058e-010 6.45731e-010 2.88763e-010 2.22167 -0.733487 -0.20892 6.04709e-014 -1.01772e-013 -3.37934e-015 -39.7351 -3.0265 -50.8237 26.0958 -23.6852 -57.1757 0.481239 19.3281 -2.82549 -2.9492e-010 3.99851e-010 -1.6814e-010 -5.13512e-010 6.83078e-010 -2.83787e-010 -2.94924e-010 3.99868e-010 -1.68137e-010 -7.73091 5.47488 -0.417314 -2.94921e-010 3.99862e-010 -1.68146e-010 -2.90554 0.965183 -0.102902 -2.94924e-010 3.99853e-010 -1.68139e-010 -10.2786 0.731801 -0.0259123 -2.94917e-010 3.99853e-010 -1.68146e-010 -2.22167 -0.733487 0.20892 -2.03217e-016 0 -3.88251e-019 -11.804 -17.9464 -12.8166 -1.10962 61.3762 1.78474 -1.9606 -25.8377 -3.4121 2.03217e-016 0 3.88251e-019 17.0391 -18.4023 9.92207 1.14399 61.6816 -1.70672 -2.99081 -26.9665 -5.32627 
17.839 73.271 16.5817 -2.77164 -9.63836 -1.96693 4.48183 9.4394 0.518766 1.35223 -4.30151 0.125989 -1.29645 -11.8136 -0.860597 -3.98277 3.04103 -1.03326 -0 0 0 -0 0 0 5.99293e-014 -1.65637e-013 -1.16037e-014 27.7979 -7.45559 56.5888 -23.2913 -17.0147 49.0745 -0.662189 21.8092 3.23434 4.78756e-010 1.07233e-009 4.95108e-010 8.36588e-010 1.83049e-009 8.43474e-010 4.78756e-010 1.07231e-009 4.95084e-010 7.73091 5.47488 0.417314 4.78757e-010 1.07232e-009 4.95107e-010 2.90554 0.965183 0.102902 4.78765e-010 1.07233e-009 4.95115e-010 10.2786 0.731801 0.0259123 4.78755e-010 1.07233e-009 4.95126e-010 2.22167 -0.733487 -0.20892 6.00947e-014 -1.65628e-013 -1.1988e-014 -42.7333 -2.99035 -54.3974 26.3347 -23.1181 -61.4017 0.590974 20.6711 -3.04835 -1.60635e-010 6.32879e-010 -3.57725e-010 -2.83918e-010 1.08951e-009 -6.12791e-010 -1.60638e-010 6.32893e-010 -3.57722e-010 -7.73091 5.47488 -0.417314 -1.60636e-010 6.32888e-010 -3.5773e-010 -2.90554 0.965183 -0.102902 -1.60641e-010 6.3288e-010 -3.57724e-010 -10.2786 0.731801 -0.0259123 -1.60632e-010 6.3288e-010 -3.57731e-010 -2.22167 -0.733487 0.20892 -2.03217e-016 0 -3.88251e-019 -12.8817 -19.0163 -13.7846 -1.56265 65.8416 2.25195 -2.28742 -27.8801 -3.8536 2.03217e-016 0 3.88251e-019 18.5059 -19.2479 10.6675 1.52769 65.6628 -2.09754 -3.4566 -28.9005 -5.79478 
17.8336 73.2703 16.5838 -2.74195 -9.56738 -1.96548 4.45605 9.37839 0.516189 1.33428 -4.27231 0.126836 -1.28538 -11.7228 -0.852895 -3.96148 3.03294 -1.01911 -0 0 0 -0 0 0 5.56732e-014 -2.49034e-013 -2.41554e-014 27.5242 -7.47263 56.1835 -23.2256 -16.9994 48.6928 -0.648018 21.6545 3.20785 6.11821e-010 1.63691e-009 7.70733e-010 1.07009e-009 2.79867e-009 1.31595e-009 6.11822e-010 1.6369e-009 7.70713e-010 7.73091 5.47488 0.417314 6.11822e-010 1.6369e-009 7.70729e-010 2.90554 0.965183 0.102902 6.11828e-010 1.63691e-009 7.70738e-010 10.2786 0.731801 0.0259123 6.11817e-010 1.63691e-009 7.70748e-010 2.22167 -0.733487 -0.20892 5.57927e-014 -2.49024e-013 -2.45095e-014 -42.4157 -3.00346 -53.9947 26.3109 -23.2043 -60.9438 0.577043 20.502 -3.0201 9.5813e-011 9.34965e-010 -6.19894e-010 1.55988e-010 1.61792e-009 -1.06862e-009 9.58105e-011 9.34973e-010 -6.19888e-010 -7.73091 5.47488 -0.417314 9.58121e-011 9.34971e-010 -6.19896e-010 -2.90554 0.965183 -0.102902 9.5804e-011 9.34964e-010 -6.19892e-010 -10.2786 0.731801 -0.0259123 9.58152e-011 9.34965e-010 -6.19897e-010 -2.22167 -0.733487 0.20892 -2.03217e-016 0 -3.88251e-019 -12.7472 -18.9108 -13.644 -1.50425 65.3575 2.19645 -2.35496 -27.5782 -3.99467 2.03217e-016 0 3.88251e-019 18.3381 -19.1551 10.5877 1.48166 65.2314 -2.05123 -3.40278 -28.6867 -5.73639 
